<svg xmlns="http://www.w3.org/2000/svg" xmlns:xlink="http://www.w3.org/1999/xlink" version="1.1" id="Your_Icon" x="0px" y="0px" width="48px" height="48px" viewBox="17 176.375 48 48" enable-background="new 17 176.375 48 48" xml:space="preserve">
<path class="logo-svg-path" fill="#ffffff" d="M41,176.375c-13.255,0-24,10.745-24,24s10.745,24,24,24s24-10.745,24-24S54.255,176.375,41,176.375z   M51.917,199.186h-0.5v10.476c0,1.77-1.444,3.215-3.215,3.215h-3.571c0.014-0.127,0.036-0.25,0.036-0.38v-7.813  c0-2.201-1.688-4-3.75-4c-2.062,0-3.75,1.799-3.75,4v7.813c0,0.13,0.024,0.253,0.036,0.38h-3.571c-1.768,0-3.215-1.445-3.215-3.215  v-10.476h-0.5c-2.2,0-2.727-1.273-1.171-2.83l9.342-9.342c1.557-1.557,4.104-1.557,5.658,0l9.342,9.342  C54.646,197.912,54.117,199.186,51.917,199.186z"/>
</svg>